<svg width="48" height="48" viewBox="0 0 48 48" fill="none" xmlns="http://www.w3.org/2000/svg">
<g clip-path="url(#clip0_3_2)">
<path fill-rule="evenodd" clip-rule="evenodd" d="M44.2007 1.12461C42.8482 0.875809 40.6798 0.661612 37.3895 0.786863C35.9578 0.841363 34.7326 0.916199 33.692 0.999856C32.2504 1.11576 31.1857 1.8787 30.7659 2.96405C30.3467 4.04783 30.6171 5.333 31.5911 6.39847C32.1199 6.97688 32.7311 7.63148 33.4369 8.37003C27.7705 14.0762 22.7585 19.2677 20.3479 21.7781C19.3052 22.8639 18.7647 24.5786 19.7631 25.9608C20.3738 26.8065 21.1723 27.6069 22.0169 28.2209C23.4106 29.234 25.1433 28.6785 26.2315 27.6175C28.7307 25.181 33.8804 20.1504 39.585 14.5201C40.3426 15.2446 41.0124 15.8703 41.6028 16.41C42.6681 17.3838 43.953 17.6542 45.0366 17.2352C46.1218 16.8156 46.8845 15.751 47.0004 14.3097C47.0841 13.2688 47.1589 12.043 47.2133 10.6105C47.3382 7.3202 47.1241 5.15194 46.8754 3.79952C46.6198 2.40996 45.5903 1.38023 44.2007 1.12461ZM8.57337 5.65138C11.5619 5.4418 15.896 5.25 21.75 5.25C23.0178 5.25 24.2143 5.259 25.3413 5.27522C26.4457 5.29112 27.3282 6.19935 27.3123 7.3038C27.2964 8.40826 26.3882 9.2907 25.2837 9.27481C24.1762 9.25886 22.9989 9.25 21.75 9.25C15.9832 9.25 11.7426 9.43896 8.85318 9.64158C6.8105 9.78482 5.28483 11.3105 5.14158 13.3532C4.93896 16.2426 4.75 20.4832 4.75 26.25C4.75 32.0168 4.93895 36.2574 5.14158 39.1468C5.28482 41.1895 6.8105 42.7152 8.85318 42.8584C11.7426 43.061 15.9832 43.25 21.75 43.25C27.5168 43.25 31.7574 43.061 34.6468 42.8584C36.6895 42.7152 38.2152 41.1895 38.3584 39.1468C38.561 36.2574 38.75 32.0168 38.75 26.25C38.75 25.0011 38.7411 23.8238 38.7252 22.7163C38.7093 21.6118 39.5917 20.7036 40.6962 20.6877C41.8007 20.6718 42.7089 21.5543 42.7248 22.6587C42.741 23.7857 42.75 24.9822 42.75 26.25C42.75 32.104 42.5582 36.4381 42.3486 39.4266C42.0659 43.4579 38.9579 46.5659 34.9266 46.8486C31.9381 47.0582 27.604 47.25 21.75 47.25C15.896 47.25 11.5619 47.0582 8.57336 46.8486C4.54212 46.5659 1.43407 43.4579 1.15138 39.4266C0.941803 36.4381 0.75 32.104 0.75 26.25C0.75 20.396 0.941805 16.0619 1.15138 13.0734C1.43408 9.04212 4.54212 5.93407 8.57337 5.65138Z" fill="black"/>
</g>
<defs>
<clipPath id="clip0_3_2">
<rect width="48" height="48" fill="white"/>
</clipPath>
</defs>
</svg>
