<svg width="24" height="24" viewBox="0 0 24 24" fill="none" xmlns="http://www.w3.org/2000/svg">
<path d="M19 12.9999C19.5522 12.9999 19.9999 13.4476 20 13.9999V15.9999C20 17.6567 18.6569 18.9999 17 18.9999H6.76074L7.74023 20.077C8.11168 20.4857 8.08144 21.1186 7.67285 21.4901C7.26419 21.8616 6.63126 21.8314 6.25977 21.4227L3.75977 18.6727C3.74945 18.6614 3.74017 18.6493 3.73047 18.6376C3.72751 18.634 3.72459 18.6304 3.72168 18.6268C3.70802 18.6099 3.69501 18.5927 3.68262 18.5751C3.67492 18.5642 3.66742 18.5531 3.66016 18.5419C3.6486 18.524 3.63823 18.5056 3.62793 18.4872C3.62302 18.4784 3.61793 18.4698 3.61328 18.4608C3.60553 18.4459 3.59777 18.4311 3.59082 18.4159C3.58403 18.4011 3.57737 18.3862 3.57129 18.371C3.56398 18.3526 3.55794 18.3339 3.55176 18.3153C3.54861 18.3058 3.54486 18.2966 3.54199 18.287C3.52573 18.2325 3.51461 18.177 3.50781 18.121C3.50302 18.0813 3.5 18.0408 3.5 17.9999C3.5 17.9569 3.50254 17.9145 3.50781 17.8729C3.51867 17.7877 3.54045 17.7036 3.57324 17.6229C3.57781 17.6117 3.58293 17.6007 3.58789 17.5897C3.59605 17.5716 3.60496 17.5537 3.61426 17.536C3.61894 17.5271 3.62397 17.5184 3.62891 17.5096C3.63969 17.4905 3.65094 17.4716 3.66309 17.453C3.66913 17.4438 3.67531 17.4347 3.68164 17.4257C3.69309 17.4094 3.70524 17.3935 3.71777 17.3778C3.72456 17.3693 3.73123 17.3607 3.73828 17.3524C3.74542 17.344 3.7523 17.3352 3.75977 17.327L6.25977 14.577C6.63125 14.1685 7.26421 14.1383 7.67285 14.5096C8.08147 14.8811 8.11163 15.5141 7.74023 15.9227L6.76074 16.9999H17C17.5523 16.9999 18 16.5522 18 15.9999V13.9999C18.0001 13.4476 18.4478 12.9999 19 12.9999ZM16.3271 2.50968C16.7358 2.1383 17.3688 2.16851 17.7402 2.57707L20.2402 5.32707C20.2476 5.33512 20.2537 5.34423 20.2607 5.35246C20.2678 5.36075 20.2745 5.36933 20.2812 5.37785C20.2938 5.39358 20.3059 5.40941 20.3174 5.4257C20.3237 5.43471 20.3299 5.44382 20.3359 5.45304C20.3481 5.47161 20.3593 5.49053 20.3701 5.50968C20.3751 5.51844 20.3801 5.52713 20.3848 5.53605C20.3941 5.5538 20.403 5.5716 20.4111 5.58976C20.4161 5.60078 20.4212 5.61174 20.4258 5.62296C20.4586 5.70372 20.4803 5.78768 20.4912 5.87296C20.4965 5.91457 20.5 5.95688 20.5 5.99992C20.5 6.04159 20.4962 6.08263 20.4912 6.12296C20.4844 6.17838 20.4731 6.23315 20.457 6.28703C20.4539 6.29751 20.4507 6.30794 20.4473 6.31828C20.4413 6.33604 20.4347 6.35354 20.4277 6.37101C20.4216 6.38622 20.415 6.4011 20.4082 6.41593C20.4012 6.43114 20.3935 6.44594 20.3857 6.46086C20.3804 6.47109 20.3748 6.48111 20.3691 6.49113C20.3595 6.50825 20.3496 6.52526 20.3389 6.54191C20.3316 6.55315 20.3241 6.56419 20.3164 6.57511C20.304 6.59271 20.291 6.60992 20.2773 6.62687C20.2731 6.6321 20.269 6.63735 20.2646 6.6425C20.2563 6.65238 20.249 6.66314 20.2402 6.67277L17.7402 9.42277C17.3687 9.83141 16.7358 9.86161 16.3271 9.49015C15.9186 9.11865 15.8883 8.48571 16.2598 8.07707L17.2383 6.99992H7C6.44775 6.99992 6.00006 7.44769 6 7.99992V9.99992C6 10.5522 5.55228 10.9999 5 10.9999C4.44772 10.9999 4 10.5522 4 9.99992V7.99992C4.00006 6.34312 5.34318 4.99992 7 4.99992H17.2383L16.2598 3.92277C15.8884 3.51411 15.9185 2.88116 16.3271 2.50968Z" fill="black"/>
</svg>
